<?xml version="1.0" standalone="no"?>
<!DOCTYPE svg PUBLIC "-//W3C//DTD SVG 1.1//EN" "http://www.w3.org/Graphics/SVG/1.1/DTD/svg11.dtd">
<svg width="17" height="16" viewBox="0 0 17 16" fill="none" xmlns="http://www.w3.org/2000/svg">
  <g id="Icon" stroke-linejoin="miter" stroke="none" stroke-width="0.275" fill="#0A101C">
    <path d="M7.08661 9.85107L5.36891 8.22622L4.5141 9.03483L7.07854 11.4607L11.9171 6.88363L11.0623 6.07502L7.08661 9.85107ZM8.26399 14.0238C6.76685 14.0238 5.33102 13.4612 4.27238 12.4598C3.21373 11.4584 2.61899 10.1001 2.61899 8.68393C2.61899 7.26771 3.21373 5.90949 4.27238 4.90807C5.33102 3.90665 6.76685 3.34406 8.26399 3.34406C9.76114 3.34406 11.197 3.90665 12.2556 4.90807C13.3143 5.90949 13.909 7.26771 13.909 8.68393C13.909 10.1001 13.3143 11.4584 12.2556 12.4598C11.197 13.4612 9.76114 14.0238 8.26399 14.0238ZM8.26399 1.81839C6.33909 1.81839 4.49302 2.54172 3.13191 3.82926C1.7708 5.11679 1.00614 6.86307 1.00614 8.68393C1.00614 10.5048 1.7708 12.2511 3.13191 13.5386C4.49302 14.8261 6.33909 15.5495 8.26399 15.5495C10.1889 15.5495 12.035 14.8261 13.3961 13.5386C14.7572 12.2511 15.5219 10.5048 15.5219 8.68393C15.5219 6.86307 14.7572 5.11679 13.3961 3.82926C12.035 2.54172 10.1889 1.81839 8.26399 1.81839ZM4.94151 1.35306L3.90928 0.185913L0.199707 3.12284L1.24 4.28998L4.94151 1.35306ZM16.3283 3.13047L12.6187 0.185913L11.5784 1.35306L15.288 4.29761L16.3283 3.13047Z" />
  </g>
</svg>