<?xml version="1.0" standalone="no"?>
<!DOCTYPE svg PUBLIC "-//W3C//DTD SVG 1.1//EN" "http://www.w3.org/Graphics/SVG/1.1/DTD/svg11.dtd">
<svg width="28" height="17" viewBox="0 0 28 17" fill="none" xmlns="http://www.w3.org/2000/svg">
  <g id="Icon" stroke-linejoin="miter" stroke="none" stroke-width="0.275" fill="#0A101C">
    <path d="M13.7465 0.246948C14.7996 0.246948 15.8096 0.665286 16.5542 1.40993C17.2989 2.15457 17.7172 3.16453 17.7172 4.21762C17.7172 5.2707 17.2989 6.28066 16.5542 7.0253C15.8096 7.76995 14.7996 8.18828 13.7465 8.18828C12.6934 8.18828 11.6835 7.76995 10.9388 7.0253C10.1942 6.28066 9.77587 5.2707 9.77587 4.21762C9.77587 3.16453 10.1942 2.15457 10.9388 1.40993C11.6835 0.665286 12.6934 0.246948 13.7465 0.246948ZM5.8052 3.08314C6.4405 3.08314 7.03043 3.25331 7.54095 3.55962C7.37077 5.18192 7.84725 6.79288 8.8229 8.05215C8.25567 9.14125 7.12119 9.89 5.8052 9.89C4.90255 9.89 4.03687 9.53143 3.39861 8.89316C2.76034 8.25489 2.40177 7.38922 2.40177 6.48657C2.40177 5.58392 2.76034 4.71825 3.39861 4.07998C4.03687 3.44171 4.90255 3.08314 5.8052 3.08314ZM21.6879 3.08314C22.5905 3.08314 23.4562 3.44171 24.0945 4.07998C24.7327 4.71825 25.0913 5.58392 25.0913 6.48657C25.0913 7.38922 24.7327 8.25489 24.0945 8.89316C23.4562 9.53143 22.5905 9.89 21.6879 9.89C20.3719 9.89 19.2374 9.14125 18.6702 8.05215C19.6589 6.77499 20.1179 5.16622 19.9521 3.55962C20.4626 3.25331 21.0526 3.08314 21.6879 3.08314ZM6.37243 14.7115C6.37243 12.3632 9.67376 10.4572 13.7465 10.4572C17.8193 10.4572 21.1206 12.3632 21.1206 14.7115V16.6969H6.37243V14.7115ZM0.132812 16.6969V14.9951C0.132812 13.4182 2.27697 12.0909 5.18123 11.7052C4.51189 12.4766 4.10348 13.543 4.10348 14.7115V16.6969H0.132812ZM27.3603 16.6969H23.3896V14.7115C23.3896 13.543 22.9812 12.4766 22.3118 11.7052C25.2161 12.0909 27.3603 13.4182 27.3603 14.9951V16.6969Z" />
  </g>
</svg>