<?xml version="1.0" standalone="no"?>
<!DOCTYPE svg PUBLIC "-//W3C//DTD SVG 1.1//EN" "http://www.w3.org/Graphics/SVG/1.1/DTD/svg11.dtd">
<svg width="24" height="19" viewBox="0 0 24 19" fill="none" xmlns="http://www.w3.org/2000/svg">
  <g id="Icon" stroke-linejoin="miter" stroke="none" stroke-width="0.275" fill="#0A101C">
    <path d="M16.6979 15.8469V18.1653H0.924805V15.8469C0.924805 15.8469 0.924805 11.2102 8.81137 11.2102C16.6979 11.2102 16.6979 15.8469 16.6979 15.8469ZM12.7547 4.83475C12.7547 4.03232 12.5234 3.24792 12.0901 2.58073C11.6568 1.91354 11.0409 1.39353 10.3204 1.08646C9.59986 0.779387 8.807 0.699042 8.04208 0.855587C7.27715 1.01213 6.57453 1.39853 6.02305 1.96593C5.47157 2.53333 5.09601 3.25624 4.94386 4.04324C4.79171 4.83024 4.8698 5.64599 5.16825 6.38734C5.46671 7.12868 5.97213 7.76231 6.6206 8.20811C7.26907 8.65391 8.03147 8.89186 8.81137 8.89186C9.8572 8.89186 10.8602 8.46442 11.5997 7.70356C12.3392 6.9427 12.7547 5.91076 12.7547 4.83475ZM16.6303 11.2102C17.323 11.7617 17.8897 12.4626 18.2907 13.2637C18.6916 14.0648 18.9171 14.9465 18.9513 15.8469V18.1653H23.4579V15.8469C23.4579 15.8469 23.4579 11.6391 16.6303 11.2102ZM15.5713 0.777631C14.7959 0.77392 14.0377 1.0124 13.3969 1.46154C14.0812 2.44538 14.4492 3.6249 14.4492 4.83475C14.4492 6.04459 14.0812 7.22411 13.3969 8.20795C14.0377 8.65709 14.7959 8.89557 15.5713 8.89186C16.6171 8.89186 17.6201 8.46442 18.3596 7.70356C19.0991 6.9427 19.5146 5.91076 19.5146 4.83475C19.5146 3.75873 19.0991 2.72679 18.3596 1.96593C17.6201 1.20508 16.6171 0.777631 15.5713 0.777631Z" />
  </g>
</svg>