<?xml version="1.0" standalone="no"?>
<!DOCTYPE svg PUBLIC "-//W3C//DTD SVG 1.1//EN" "http://www.w3.org/Graphics/SVG/1.1/DTD/svg11.dtd">
<svg width="15" height="15" viewBox="0 0 15 15" fill="none" xmlns="http://www.w3.org/2000/svg">
  <g id="Icon" stroke-linejoin="miter" stroke="none" stroke-width="0.275" fill="#0A101C">
    <path d="M1.57189 0.655273C0.790275 0.655273 0.163574 1.28197 0.163574 2.06359V9.10517C0.163574 9.47868 0.31195 9.83689 0.57606 10.101C0.840171 10.3651 1.19838 10.5135 1.57189 10.5135H7.20515V14.0343L9.31763 11.9218L11.4301 14.0343V10.5135H12.8384C13.2119 10.5135 13.5701 10.3651 13.8342 10.101C14.0984 9.83689 14.2467 9.47868 14.2467 9.10517V2.06359C14.2467 1.69008 14.0984 1.33187 13.8342 1.06776C13.5701 0.803649 13.2119 0.655273 12.8384 0.655273H1.57189ZM7.20515 2.06359L9.31763 3.47191L11.4301 2.06359V4.52814L13.5426 5.58438L11.4301 6.64062V9.10517L9.31763 7.69685L7.20515 9.10517V6.64062L5.09268 5.58438L7.20515 4.52814V2.06359ZM1.57189 2.06359H5.09268V3.47191H1.57189V2.06359ZM1.57189 4.88022H3.68436V6.28854H1.57189V4.88022ZM1.57189 7.69685H5.09268V9.10517H1.57189V7.69685Z" />
  </g>
</svg>