<?xml version="1.0" standalone="no"?>
<!DOCTYPE svg PUBLIC "-//W3C//DTD SVG 1.1//EN" "http://www.w3.org/Graphics/SVG/1.1/DTD/svg11.dtd">
<svg width="25" height="21" viewBox="0 0 25 21" fill="none" xmlns="http://www.w3.org/2000/svg">
  <g id="Icon" stroke-linejoin="miter" stroke="none" stroke-width="0.275" fill="#0A101C">
    <path d="M9.88027 0.369263C8.6975 0.369263 7.56316 0.839119 6.72681 1.67547C5.89046 2.51182 5.42061 3.64615 5.42061 4.82893C5.42061 6.01171 5.89046 7.14604 6.72681 7.98239C7.56316 8.81874 8.6975 9.2886 9.88027 9.2886C11.0631 9.2886 12.1974 8.81874 13.0337 7.98239C13.8701 7.14604 14.3399 6.01171 14.3399 4.82893C14.3399 3.64615 13.8701 2.51182 13.0337 1.67547C12.1974 0.839119 11.0631 0.369263 9.88027 0.369263ZM17.6847 9.2886C17.6166 9.28733 17.5502 9.3101 17.4972 9.35292C17.4441 9.39573 17.4079 9.45586 17.3948 9.52273L17.183 10.9944C16.8485 11.1394 16.5252 11.3177 16.2353 11.5184L14.8528 10.961C14.7302 10.961 14.5852 10.961 14.5072 11.1059L13.3923 13.0347C13.3254 13.1574 13.3477 13.3023 13.4592 13.3915L14.641 14.3057C14.5966 14.676 14.5966 15.0503 14.641 15.4206L13.4592 16.3349C13.4091 16.3778 13.3751 16.4366 13.363 16.5015C13.3508 16.5664 13.3611 16.6334 13.3923 16.6916L14.5072 18.6205C14.5741 18.7654 14.719 18.7654 14.8528 18.7654L16.2353 18.2079C16.5252 18.4086 16.8374 18.5982 17.183 18.7319L17.3948 20.2036C17.4171 20.3374 17.5286 20.4378 17.6847 20.4378H19.9145C20.0372 20.4378 20.1598 20.3374 20.1821 20.2036L20.3939 18.7319C20.7284 18.587 21.0294 18.4086 21.3305 18.2079L22.7018 18.7654C22.8468 18.7654 22.9917 18.7654 23.0697 18.6205L24.1847 16.6916C24.2158 16.6334 24.2261 16.5664 24.214 16.5015C24.2018 16.4366 24.1679 16.3778 24.1178 16.3349L22.9248 15.4206C22.9471 15.2311 22.9694 15.0527 22.9694 14.8632C22.9694 14.6736 22.9583 14.4953 22.9248 14.3057L24.1066 13.3915C24.1567 13.3485 24.1907 13.2897 24.2028 13.2249C24.215 13.16 24.2046 13.0929 24.1735 13.0347L23.0586 11.1059C22.9917 10.961 22.8468 10.961 22.7018 10.961L21.3305 11.5184C21.0294 11.3177 20.7284 11.1282 20.3828 10.9944L20.171 9.52273C20.1639 9.45922 20.134 9.40044 20.0868 9.35736C20.0397 9.31427 19.9784 9.28983 19.9145 9.2886H17.6847ZM9.88027 11.5184C4.95234 11.5184 0.960938 13.5141 0.960938 15.9781V18.2079H11.7533C11.2557 17.163 10.9968 16.0205 10.9952 14.8632C10.9975 13.743 11.2408 12.6365 11.7087 11.6188C11.1178 11.5519 10.5046 11.5184 9.88027 11.5184ZM18.7996 13.1908C19.725 13.1908 20.472 13.9378 20.472 14.8632C20.472 15.7886 19.725 16.5356 18.7996 16.5356C17.8631 16.5356 17.1272 15.7886 17.1272 14.8632C17.1272 13.9378 17.8742 13.1908 18.7996 13.1908Z" />
  </g>
</svg>