<?xml version="1.0" standalone="no"?>
<!DOCTYPE svg PUBLIC "-//W3C//DTD SVG 1.1//EN" "http://www.w3.org/Graphics/SVG/1.1/DTD/svg11.dtd">
<!--Generator: Xara Designer (www.xara.com), SVG filter version: 6.6.0.0-->
<svg fill="none" fill-rule="evenodd" stroke="black" stroke-width="0.501" stroke-linejoin="bevel" stroke-miterlimit="10" font-family="Times New Roman" font-size="16" style="font-variant-ligatures:none" xmlns:xlink="http://www.w3.org/1999/xlink" xmlns="http://www.w3.org/2000/svg" version="1.1" overflow="visible" width="553.494pt" height="531.93pt" viewBox="21.018 -559.007 553.494 531.93">
 <defs>
	</defs>
 <g id="Layer 1" transform="scale(1 -1)"/>
 <g id="Male" transform="scale(1 -1)">
  <path d="M 227.809,211.06 C 220.18,229.035 165.747,365.045 168.95,378.388 C 163.369,425.518 127.55,521.788 241.655,553.229 C 267.395,563.714 322.807,558.858 353.19,547.239 C 448.549,521.188 428.845,355.579 360.631,216 C 367.54,148.344 240.209,177.857 227.809,211.06 Z" stroke="none" fill="#a06b08" stroke-linejoin="miter" stroke-width="0.739" marker-start="none" marker-end="none"/>
  <path d="M 21.018,52.343 C 32.902,40.277 44.567,30.399 55.565,27.077 L 538.611,27.077 C 550.376,28.812 560.923,40.577 574.458,50.214 C 574.458,50.214 574.494,50.245 574.512,50.261 C 553.659,100.512 532.066,149.388 496.669,157.359 L 343.214,195.47 L 252.615,202.67 L 85.163,153.492 C 64.856,145.266 49.833,127.71 38.916,102.545 C 32.621,87.673 27.485,70.307 21.018,52.343 Z" stroke="none" fill="#000000" stroke-linejoin="miter" stroke-width="0.739" marker-start="none" marker-end="none"/>
  <path d="M 219.383,184.932 C 237.661,103.863 352.972,120.738 368.267,188.656 C 360.428,220.486 364.304,262.569 363.675,300.709 C 316.481,311.972 270.26,307.644 225.037,287.378 C 230.355,242.733 232.002,203.435 219.383,184.932 Z" stroke="none" fill="#ffcd8b" stroke-linejoin="miter" stroke-width="0.739" marker-start="none" marker-end="none"/>
  <path d="M 202.333,254.516 C 199.397,267.825 196.192,283.775 193.447,300.47 C 187.846,292.753 185.1,308.181 180.244,323.518 C 171.051,352.554 163.265,395.82 185.637,376.253 C 186.65,368.122 186.059,349.424 190.508,343.445 C 191.797,341.452 192.498,341.209 194.99,339.673 C 190.19,360.073 189.082,384.275 187.94,393.223 C 183.44,435.823 203.571,439.767 208.258,447.736 C 204.343,438.68 205.127,426.998 208.727,416.798 C 207.494,432.212 218.477,449.883 233.915,462.405 C 229.094,453.569 227.001,443.023 227.969,436.882 C 233.219,450.757 242.407,469.132 254.422,474.625 C 264.019,478.468 282.11,481.34 291.244,479.263 C 327.416,483.958 351.289,471.868 361.339,440.068 C 360.599,459.777 357.739,461.068 355.339,469.018 C 360.996,466.278 363.624,462.961 375.589,446.668 C 379.587,441.44 386.672,422.705 383.539,402.718 C 387.589,415.918 390.289,421.468 388.744,429.763 C 395.485,414.885 401.623,399.346 399.731,390.67 C 399.503,384.941 399.252,379.223 398.974,373.548 C 416.336,397.645 413.595,354.254 406.304,325.46 C 402.546,310.614 397.746,298.056 393.516,303.968 C 391.685,288.929 389.435,275.691 386.657,265.252 C 360.509,227.929 334.957,212.021 320.744,209.329 C 314.782,210.155 269.373,205.295 263.31,207.529 C 237.707,217.091 212.441,237.983 202.333,254.516" fill="#ffcd8b" stroke="#c38b3c" stroke-width="2" stroke-linejoin="miter"/>
 </g>
</svg>
